{"title":"Public Enemies (2009) DVDRip XviD-MAX","uid":5121351,"size":1467488743,"categoryP":"video","categoryS":"movies","magnet":"?xt=urn:btih:2f8fbb2b15804dfe8ab02a8029481fe0db4c4c61&amp;dn=Public+Enemies+%282009%29+DVDRip+XviD-MAX&amp;tr=udp%3A%2F%2Ftracker.openbittorrent.com%3A80&amp;tr=udp%3A%2F%2Fopen.demonii.com%3A1337&amp;tr=udp%3A%2F%2Ftracker.coppersurfer.tk%3A6969&amp;tr=udp%3A%2F%2Fexodus.desync.com%3A6969","seeders":8,"leechers":3,"uploader":"extremezone","files":-1,"time":1255367210,"description":"Public Enemies (2009) DVDRip XviD-MAX\n\nFormat                           : AVI\nFormat/Info                      : Audio Video Interleave\nFile size                        : 1.37 GiB\nDuration                         : 2h 20mn\nOverall bit rate                 : 1 395 Kbps\nWriting application              : VirtualDubMod 1.5.10.2 (build 2542/release)\nWriting library                  : VirtualDubMod build 2542/release\nOriginal source form             : MAX TORRENTZ\nCopyright                        : SIGISMUNT\n\nVideo\nID                               : 0\nFormat                           : MPEG-4 Visual\nFormat profile                   : AdvancedSimple@L5\nFormat settings, BVOP            : Yes\nFormat settings, QPel            : No\nFormat settings, GMC             : No warppoints\nFormat settings, Matrix          : Default (MPEG)\nMuxing mode                      : Packed bitstream\nCodec ID                         : XVID\nCodec ID/Hint                    : XviD\nDuration                         : 2h 20mn\nBit rate                         : 938 Kbps\nWidth                            : 640 pixels\nHeight                           : 272 pixels\nDisplay aspect ratio             : 2.35:1\nFrame rate                       : 23.976 fps\nResolution                       : 24 bits\nColorimetry                      : 4:2:0\nScan type                        : Progressive\nBits/(Pixel*Frame)               : 0.225\nStream size                      : 941 MiB (67%)\nWriting library                  : XviD 1.2.1 (UTC 2008-12-04)\n\nAudio\nID                               : 1\nFormat                           : AC-3\nFormat/Info                      : Audio Coding 3\nCodec ID                         : 2000\nDuration                         : 2h 20mn\nBit rate mode                    : Constant\nBit rate                         : 448 Kbps\nChannel(s)                       : 6 channels\nChannel positions                : Front: L C R, Surround: L R, LFE\nSampling rate                    : 48.0 KHz\nStream size                      : 449 MiB (32%)\nAlignment                        : Split accross interleaves\nInterleave, duration             : 42 ms (1.00 video frame)\nInterleave, preload duration     : 500 ms\n\n\nScreens: &lt;a href=&quot;\nhttp://i998.photobucket.com/albums/af107/extremezone1/1-1.jpg&quot; rel=&quot;nofollow&quot; target=&quot;_NEW&quot;&gt;\nhttp://i998.photobucket.com/albums/af107/extremezone1/1-1.jpg&lt;/a&gt; &lt;a href=&quot;\nhttp://i998.photobucket.com/albums/af107/extremezone1/2.jpg&quot; rel=&quot;nofollow&quot; target=&quot;_NEW&quot;&gt;\nhttp://i998.photobucket.com/albums/af107/extremezone1/2.jpg&lt;/a&gt; &lt;a href=&quot;\nhttp://i998.photobucket.com/albums/af107/extremezone1/3.jpg&quot; rel=&quot;nofollow&quot; target=&quot;_NEW&quot;&gt;\nhttp://i998.photobucket.com/albums/af107/extremezone1/3.jpg&lt;/a&gt; &lt;a href=&quot;\nhttp://i998.photobucket.com/albums/af107/extremezone1/4.jpg&quot; rel=&quot;nofollow&quot; target=&quot;_NEW&quot;&gt;\nhttp://i998.photobucket.com/albums/af107/extremezone1/4.jpg&lt;/a&gt; &lt;a href=&quot;\nhttp://i998.photobucket.com/albums/af107/extremezone1/5.jpg&quot; rel=&quot;nofollow&quot; target=&quot;_NEW&quot;&gt;\nhttp://i998.photobucket.com/albums/af107/extremezone1/5.jpg&lt;/a&gt;\n\nScreenCaps: &lt;a href=&quot;\nhttp://i998.photobucket.com/albums/af107/extremezone1/6.jpg&quot; rel=&quot;nofollow&quot; target=&quot;_NEW&quot;&gt;\nhttp://i998.photobucket.com/albums/af107/extremezone1/6.jpg&lt;/a&gt;\n\n\n","torrent":{"xt":"urn:btih:2f8fbb2b15804dfe8ab02a8029481fe0db4c4c61","amp;dn":"Public+Enemies+%282009%29+DVDRip+XviD-MAX","amp;tr":["udp%3A%2F%2Ftracker.openbittorrent.com%3A80","udp%3A%2F%2Fopen.demonii.com%3A1337","udp%3A%2F%2Ftracker.coppersurfer.tk%3A6969","udp%3A%2F%2Fexodus.desync.com%3A6969"],"infoHash":"2f8fbb2b15804dfe8ab02a8029481fe0db4c4c61","infoHashBuffer":{"type":"Buffer","data":[47,143,187,43,21,128,77,254,138,176,42,128,41,72,31,224,219,76,76,97]},"announce":[],"urlList":[]}}